<svg xmlns="http://www.w3.org/2000/svg" width="396" height="396" viewBox="0 0 396 396"><g transform="translate(-731 -251)"><g transform="translate(731 251)" fill="#ffffff" stroke="#000" stroke-width="5"><circle cx="198" cy="198" r="198" stroke="none"/><circle cx="198" cy="198" r="195.5" fill="none"/></g><line x2="26" transform="translate(1096.5 449)" fill="none" stroke="#000" stroke-width="5"/><line x2="26" transform="translate(735.5 449)" fill="none" stroke="#000" stroke-width="5"/><line y1="26" transform="translate(929 256)" fill="none" stroke="#000" stroke-width="5"/><line y1="26" transform="translate(1024.5 281) rotate(30)" fill="none" stroke="#000" stroke-width="5"/><line y1="26" transform="translate(1096.5 350.758) rotate(60)" fill="none" stroke="#000" stroke-width="5"/><line y1="26" transform="translate(1096.5 544.758) rotate(120)" fill="none" stroke="#000" stroke-width="5"/><line y1="26" transform="translate(1026.5 616) rotate(150)" fill="none" stroke="#000" stroke-width="5"/><line y1="26" transform="translate(845.5 303.517) rotate(150)" fill="none" stroke="#000" stroke-width="5"/><line y1="26" transform="translate(784.017 363.758) rotate(120)" fill="none" stroke="#000" stroke-width="5"/><line y1="26" transform="translate(782.5 531.758) rotate(60)" fill="none" stroke="#000" stroke-width="5"/><line y1="26" transform="translate(844.5 593.483) rotate(30)" fill="none" stroke="#000" stroke-width="5"/><line y1="26" transform="translate(929 616)" fill="none" stroke="#000" stroke-width="5"/><text transform="translate(913 321)" font-size="35" font-family="Montserrat" font-weight="500"><tspan x="0" y="0">12</tspan></text><text transform="translate(993 338)" font-size="35" font-family="Montserrat" font-weight="500"><tspan x="0" y="0">1</tspan></text><text transform="translate(1045 385)" font-size="35" font-family="Montserrat" font-weight="500"><tspan x="0" y="0">2</tspan></text><text transform="translate(1065 462)" font-size="35" font-family="Montserrat" font-weight="500"><tspan x="0" y="0">3</tspan></text><text transform="translate(1042 536)" font-size="35" font-family="Montserrat" font-weight="500"><tspan x="0" y="0">4</tspan></text><text transform="translate(990 584)" font-size="35" font-family="Montserrat" font-weight="500"><tspan x="0" y="0">5</tspan></text><text transform="translate(918 602)" font-size="35" font-family="Montserrat" font-weight="500"><tspan x="0" y="0">6</tspan></text><text transform="translate(847 584)" font-size="35" font-family="Montserrat" font-weight="500"><tspan x="0" y="0">7</tspan></text><text transform="translate(793 536)" font-size="35" font-family="Montserrat" font-weight="500"><tspan x="0" y="0">8</tspan></text><text transform="translate(773 462)" font-size="35" font-family="Montserrat" font-weight="500"><tspan x="0" y="0">9</tspan></text><text transform="translate(795 391)" font-size="35" font-family="Montserrat" font-weight="500"><tspan x="0" y="0">10</tspan></text><text transform="translate(840 338)" font-size="35" font-family="Montserrat" font-weight="500"><tspan x="0" y="0">11</tspan></text><g transform="translate(925 446)" stroke="#000" stroke-width="1"><circle cx="4" cy="4" r="4" stroke="none"/><circle cx="4" cy="4" r="3.5" fill="none"/></g></g></svg>